<?xml version="1.0" encoding="UTF-8" standalone="no"?>
<!-- Created with Inkscape (http://www.inkscape.org/) -->

<svg
   xmlns:dc="http://purl.org/dc/elements/1.1/"
   xmlns:cc="http://creativecommons.org/ns#"
   xmlns:rdf="http://www.w3.org/1999/02/22-rdf-syntax-ns#"
   xmlns:svg="http://www.w3.org/2000/svg"
   xmlns="http://www.w3.org/2000/svg"
   xmlns:sodipodi="http://sodipodi.sourceforge.net/DTD/sodipodi-0.dtd"
   xmlns:inkscape="http://www.inkscape.org/namespaces/inkscape"
   width="210mm"
   height="297mm"
   viewBox="0 0 210 297"
   version="1.1"
   id="svg1545"
   inkscape:version="0.92.2 (5c3e80d, 2017-08-06)"
   sodipodi:docname="cadastur-logo.svg">
  <defs
     id="defs1539">
    <clipPath
       id="clipPath130"
       clipPathUnits="userSpaceOnUse">
      <path
         inkscape:connector-curvature="0"
         id="path128"
         d="M 0,0 H 595.276 V 419.528 H 0 Z" />
    </clipPath>
  </defs>
  <sodipodi:namedview
     id="base"
     pagecolor="#ffffff"
     bordercolor="#666666"
     borderopacity="1.0"
     inkscape:pageopacity="0.0"
     inkscape:pageshadow="2"
     inkscape:zoom="0.35"
     inkscape:cx="-64.285714"
     inkscape:cy="560"
     inkscape:document-units="mm"
     inkscape:current-layer="layer1"
     showgrid="false"
     inkscape:window-width="1600"
     inkscape:window-height="837"
     inkscape:window-x="-8"
     inkscape:window-y="-8"
     inkscape:window-maximized="1" />
  <metadata
     id="metadata1542">
    <rdf:RDF>
      <cc:Work
         rdf:about="">
        <dc:format>image/svg+xml</dc:format>
        <dc:type
           rdf:resource="http://purl.org/dc/dcmitype/StillImage" />
        <dc:title></dc:title>
      </cc:Work>
    </rdf:RDF>
  </metadata>
  <g
     inkscape:label="Layer 1"
     inkscape:groupmode="layer"
     id="layer1">
    <g
       id="g124"
       transform="matrix(2.0102588,0,0,-2.0102588,-722.32408,200.47123)">
      <g
         clip-path="url(#clipPath130)"
         id="g126">
        <g
           transform="translate(400.5792,82.7004)"
           id="g1312">
          <path
             id="path1314"
             style="fill:#183967;fill-opacity:1;fill-rule:nonzero;stroke:none"
             d="m 0,0 c -3.097,0 -5.625,-1.644 -5.625,-5.103 0,-2.037 1.763,-3.337 4.018,-3.337 0.777,0 1.698,0.098 2.436,0.332 l 0.233,1.68 c -0.596,-0.196 -1.191,-0.343 -1.853,-0.343 -1.361,0 -2.177,0.736 -2.177,1.951 0,1.961 1.283,3.152 3.149,3.152 0.661,0 1.348,-0.184 1.723,-0.418 l 0.571,1.705 C 2.164,-0.27 1.283,0 0,0"
             inkscape:connector-curvature="0" />
        </g>
        <g
           transform="translate(405.707,75.7219)"
           id="g1316">
          <path
             id="path1318"
             style="fill:#183967;fill-opacity:1;fill-rule:nonzero;stroke:none"
             d="m 0,0 c -0.544,0 -0.714,0.367 -0.714,0.82 0,1.607 1.284,2.773 2.463,2.773 0.104,0 0.234,-0.013 0.349,-0.049 L 1.814,2.453 C 1.464,1.09 0.803,0 0,0 m 2.164,5.004 c -2.462,0 -5.417,-1.448 -5.417,-4.467 0,-1.164 0.674,-1.998 2.126,-1.998 1.166,0 1.866,0.614 2.409,1.448 -0.09,-0.478 -0.207,-1.006 -0.246,-1.314 h 2.463 c 0.026,0.382 0.065,0.921 0.272,1.816 L 4.717,4.672 C 4.237,4.856 3.045,5.004 2.164,5.004"
             inkscape:connector-curvature="0" />
        </g>
        <g
           transform="translate(414.2073,75.7093)"
           id="g1320">
          <path
             id="path1322"
             style="fill:#183967;fill-opacity:1;fill-rule:nonzero;stroke:none"
             d="m 0,0 c -0.623,0 -0.804,0.466 -0.804,0.982 0,0.882 0.453,2.598 1.633,2.598 0.635,0 0.789,-0.49 0.789,-0.993 C 1.618,1.729 1.14,0 0,0 M 5.131,7.53 H 2.747 L 1.956,3.985 C 1.71,4.611 1.075,5.002 0.181,5.002 c -2.035,0 -3.525,-1.924 -3.525,-4.402 0,-0.76 0.389,-2.048 2.164,-2.048 0.986,0 1.736,0.392 2.345,1.239 L 0.971,-1.314 H 3.2 c 0.065,0.406 0.13,0.822 0.298,1.558 z"
             inkscape:connector-curvature="0" />
        </g>
        <g
           transform="translate(422.3706,75.7219)"
           id="g1324">
          <path
             id="path1326"
             style="fill:#183967;fill-opacity:1;fill-rule:nonzero;stroke:none"
             d="m 0,0 c -0.545,0 -0.714,0.367 -0.714,0.82 0,1.607 1.283,2.773 2.462,2.773 0.103,0 0.234,-0.013 0.35,-0.049 L 1.812,2.453 C 1.463,1.09 0.802,0 0,0 m 2.164,5.004 c -2.464,0 -5.417,-1.448 -5.417,-4.467 0,-1.164 0.674,-1.998 2.125,-1.998 1.166,0 1.866,0.614 2.409,1.448 -0.09,-0.478 -0.206,-1.006 -0.245,-1.314 h 2.461 c 0.027,0.382 0.066,0.921 0.273,1.816 L 4.716,4.672 C 4.236,4.856 3.045,5.004 2.164,5.004"
             inkscape:connector-curvature="0" />
        </g>
        <g
           transform="translate(431.4391,80.7258)"
           id="g1328">
          <path
             id="path1330"
             style="fill:#183967;fill-opacity:1;fill-rule:nonzero;stroke:none"
             d="m 0,0 c -1.45,0 -3.59,-0.43 -3.59,-2.159 0,-1.694 2.865,-1.57 2.865,-2.367 0,-0.564 -0.907,-0.663 -1.361,-0.663 -0.661,0 -1.282,0.185 -1.854,0.479 l -0.44,-1.436 c 0.764,-0.221 1.555,-0.319 2.358,-0.319 1.568,0 3.629,0.418 3.629,2.269 0,1.632 -2.929,1.545 -2.929,2.356 0,0.513 0.791,0.589 1.206,0.589 0.609,0 1.205,-0.147 1.762,-0.368 l 0.467,1.323 C 1.439,-0.124 0.7,0 0,0"
             inkscape:connector-curvature="0" />
        </g>
        <g
           transform="translate(438.2939,82.4666)"
           id="g1332">
          <path
             id="path1334"
             style="fill:#183967;fill-opacity:1;fill-rule:nonzero;stroke:none"
             d="M 0,0 -2.553,-0.711 -2.812,-1.877 H -3.94 l -0.324,-1.421 h 1.129 L -3.72,-5.911 c -0.064,-0.296 -0.103,-0.578 -0.103,-0.883 0,-1.042 0.7,-1.412 1.684,-1.412 0.765,0 1.452,0.135 1.879,0.258 l 0.247,1.459 c -0.233,-0.084 -0.48,-0.134 -0.726,-0.134 -0.349,0 -0.583,0.123 -0.583,0.49 0,0.171 0.013,0.295 0.051,0.454 l 0.532,2.381 h 1.427 l 0.309,1.421 h -1.413 z"
             inkscape:connector-curvature="0" />
        </g>
        <g
           transform="translate(446.8973,80.6019)"
           id="g1336">
          <path
             id="path1338"
             style="fill:#183967;fill-opacity:1;fill-rule:nonzero;stroke:none"
             d="M 0,0 H -2.397 L -3.2,-3.629 c -0.13,-0.601 -0.467,-1.276 -1.219,-1.276 -0.466,0 -0.66,0.233 -0.66,0.613 0,0.183 0.039,0.381 0.078,0.563 L -4.172,0 h -2.399 l -0.933,-4.206 c -0.051,-0.221 -0.064,-0.442 -0.064,-0.662 0,-1.056 0.764,-1.473 1.828,-1.473 1.101,0 1.813,0.551 2.358,1.226 l -0.181,-1.092 h 2.254 c 0.039,0.443 0.142,0.908 0.234,1.339 z"
             inkscape:connector-curvature="0" />
        </g>
        <g
           transform="translate(452.5854,80.7258)"
           id="g1340">
          <path
             id="path1342"
             style="fill:#183967;fill-opacity:1;fill-rule:nonzero;stroke:none"
             d="m 0,0 c -1.025,0 -1.802,-0.638 -2.242,-1.473 l 0.259,1.325 H -4.251 C -4.289,-0.589 -4.393,-1.031 -4.496,-1.473 L -5.585,-6.33 h 2.397 l 0.558,2.502 c 0.22,0.971 0.932,1.852 2.047,1.852 0.195,0 0.376,-0.012 0.544,-0.086 l 0.531,2 C 0.337,-0.014 0.168,0 0,0"
             inkscape:connector-curvature="0" />
        </g>
        <g
           transform="translate(403.0984,83.073)"
           id="g1344">
          <path
             id="path1346"
             style="fill:#8acf25;fill-opacity:1;fill-rule:nonzero;stroke:none"
             d="m 0,0 c -0.084,0.211 -3.074,2.201 -6.742,2.44 -3.729,0.397 -8.003,-1.295 -12.295,-4.258 -4.292,-2.965 -8.459,-4.926 -12.017,-4.967 -3.495,-0.199 -6.25,1.185 -6.071,0.73 0.084,-0.213 3.074,-2.202 6.742,-2.442 3.729,-0.397 8.003,1.294 12.296,4.259 4.291,2.965 8.458,4.925 12.017,4.967 C -2.575,0.926 0.178,-0.456 0,0"
             inkscape:connector-curvature="0" />
        </g>
        <g
           transform="translate(401.214,73.6516)"
           id="g1348">
          <path
             id="path1350"
             style="fill:#fbc707;fill-opacity:1;fill-rule:nonzero;stroke:none"
             d="m 0,0 c -0.071,-0.201 -2.807,-1.955 -6.242,-1.972 -3.489,-0.168 -7.562,1.721 -11.7,4.842 -4.136,3.122 -8.122,5.265 -11.464,5.513 -3.289,0.396 -5.825,-0.785 -5.673,-0.354 0.069,0.203 2.805,1.956 6.241,1.973 3.489,0.167 7.563,-1.722 11.701,-4.843 4.136,-3.121 8.12,-5.264 11.463,-5.513 C -2.384,-0.751 0.152,0.431 0,0"
             inkscape:connector-curvature="0" />
        </g>
      </g>
    </g>
    <text
       xml:space="preserve"
       style="font-style:normal;font-weight:normal;font-size:10.58333302px;line-height:1.25;font-family:sans-serif;letter-spacing:0px;word-spacing:0px;fill:#000000;fill-opacity:1;stroke:none;stroke-width:0.26458332"
       x="58.208332"
       y="127.66666"
       id="text2144"><tspan
         sodipodi:role="line"
         id="tspan2142"
         x="58.208332"
         y="127.66666"
         style="stroke-width:0.26458332">logodownload.org</tspan></text>
  </g>
</svg>
